<?xml version="1.0" encoding="UTF-8" standalone="no"?>
<!-- Created with Inkscape (http://www.inkscape.org/) -->

<svg
   version="1.1"
   id="svg1"
   width="1221.4963"
   height="311.27866"
   viewBox="0 0 1221.4963 311.27866"
   sodipodi:docname="DineUp_Lockup_DineUp Dark Blue.eps"
   xmlns:inkscape="http://www.inkscape.org/namespaces/inkscape"
   xmlns:sodipodi="http://sodipodi.sourceforge.net/DTD/sodipodi-0.dtd"
   xmlns="http://www.w3.org/2000/svg"
   xmlns:svg="http://www.w3.org/2000/svg">
  <defs
     id="defs1" />
  <sodipodi:namedview
     id="namedview1"
     pagecolor="#ffffff"
     bordercolor="#000000"
     borderopacity="0.25"
     inkscape:showpageshadow="2"
     inkscape:pageopacity="0.0"
     inkscape:pagecheckerboard="0"
     inkscape:deskcolor="#d1d1d1" />
  <g
     id="g1"
     inkscape:groupmode="layer"
     inkscape:label="1"
     transform="translate(-69.251595,-52.921341)">
    <g
       id="group-R5">
      <path
         id="path2"
         d="M 813.094,1022.22 H 1155.7 c 318.14,0 540.82,247.17 540.82,602.01 0,335.26 -222.68,582.43 -540.82,582.43 H 813.094 Z M 519.387,757.91 v 1713.05 h 616.683 c 509.01,0 863.85,-347.5 863.85,-846.73 0,-511.47 -354.84,-866.32 -863.85,-866.32 H 519.387"
         style="fill:#3e61b5;fill-opacity:1;fill-rule:nonzero;stroke:none"
         transform="matrix(0.13333333,0,0,-0.13333333,0,400)" />
      <path
         id="path3"
         d="m 2191.47,757.93 v 1297 h 288.76 v -1297 z m -41.61,1659.18 c 0,105.23 80.75,185.98 185.99,185.98 107.66,0 185.98,-80.75 185.98,-185.98 0,-105.23 -78.32,-188.43 -185.98,-188.43 -105.24,0 -185.99,83.2 -185.99,188.43"
         style="fill:#3e61b5;fill-opacity:1;fill-rule:nonzero;stroke:none"
         transform="matrix(0.13333333,0,0,-0.13333333,0,400)" />
      <path
         id="path4"
         d="m 2718.24,757.93 v 1297 h 232.48 l 24.47,-190.89 c 80.75,134.6 244.72,230.04 438.03,230.04 276.54,0 457.64,-185.98 457.64,-477.19 V 757.93 h -288.78 v 844.27 c 0,144.38 -95.43,239.82 -256.95,239.82 -188.43,0 -315.68,-129.7 -318.13,-298.55 V 757.93 h -288.76"
         style="fill:#3e61b5;fill-opacity:1;fill-rule:nonzero;stroke:none"
         transform="matrix(0.13333333,0,0,-0.13333333,0,400)" />
      <path
         id="path5"
         d="m 4987.37,1550.81 c -36.69,185.99 -151.71,298.55 -320.57,298.55 -171.3,0 -298.55,-112.56 -342.6,-298.55 z M 4023.2,1401.53 c 0,428.26 281.43,692.55 643.6,692.55 367.08,0 611.79,-256.95 619.13,-677.87 v -68.51 h -973.97 c 19.57,-227.59 161.51,-381.759 381.76,-381.759 149.27,0 261.84,73.419 305.89,203.109 h 281.43 c -66.08,-278.98 -283.87,-447.839 -589.76,-447.839 -396.44,0 -668.08,283.879 -668.08,680.319"
         style="fill:#3e61b5;fill-opacity:1;fill-rule:nonzero;stroke:none"
         transform="matrix(0.13333333,0,0,-0.13333333,0,400)" />
      <path
         id="path6"
         d="m 5528.12,1328.12 v 1142.83 h 293.67 V 1335.46 c 0,-220.25 178.63,-345.05 418.46,-345.05 242.27,0 420.92,124.8 420.92,345.05 v 1135.49 h 293.65 V 1328.12 c 0,-342.6 -266.73,-606.909 -712.13,-606.909 -440.47,0 -714.57,259.41 -714.57,606.909"
         style="fill:#3e61b5;fill-opacity:1;fill-rule:nonzero;stroke:none"
         transform="matrix(0.13333333,0,0,-0.13333333,0,400)" />
      <path
         id="path7"
         d="m 8167.45,1413.77 c 0,256.95 -144.38,435.59 -357.29,435.59 -212.9,0 -362.17,-176.19 -362.17,-428.25 0,-266.74 149.27,-455.169 364.62,-455.169 210.46,0 354.84,183.539 354.84,447.829 z M 7156.77,268.5 v 1786.43 h 232.49 l 29.37,-212.91 c 85.65,151.73 254.5,252.06 460.06,252.06 342.6,0 584.87,-278.98 584.87,-680.31 0,-408.68 -242.27,-692.559 -587.32,-692.559 -185.98,0 -340.15,83.211 -428.25,217.809 V 268.5 h -291.22"
         style="fill:#3e61b5;fill-opacity:1;fill-rule:nonzero;stroke:none"
         transform="matrix(0.13333333,0,0,-0.13333333,0,400)" />
      <path
         id="path8"
         d="m 9680.61,1418.25 v 974.15 c 0,43.38 -35.16,78.55 -78.54,78.55 h -974.15 c -42.89,0 -77.66,-34.77 -77.66,-77.67 v 0 c 0,-20.6 8.18,-40.35 22.74,-54.91 l 186.86,-186.86 c 29.45,-29.45 77.19,-29.45 106.64,0 l 194.51,194.51 c 26.5,26.51 69.68,28.47 97.11,2.93 28.79,-26.82 29.39,-71.92 1.81,-99.5 L 8799.9,1888.67 c -27.61,-27.61 -27.61,-72.36 0,-99.97 v 0 c 27.6,-27.61 72.36,-27.61 99.97,0 l 359.61,358.86 c 26.5,26.5 69.68,28.46 97.1,2.92 28.8,-26.81 29.4,-71.91 1.82,-99.5 L 8998.37,1690.2 c -27.61,-27.6 -27.61,-72.36 0,-99.97 v 0 c 27.6,-27.6 72.36,-27.6 99.96,0 l 359.61,358.86 c 26.51,26.5 69.68,28.47 97.11,2.92 28.79,-26.81 29.4,-71.91 1.81,-99.49 l -195.68,-195.69 c -29.45,-29.45 -29.45,-77.19 0,-106.64 l 186.85,-186.85 c 14.57,-14.57 34.32,-22.75 54.92,-22.75 v 0 c 42.89,0 77.66,34.77 77.66,77.66"
         style="fill:#3e61b5;fill-opacity:1;fill-rule:nonzero;stroke:none"
         transform="matrix(0.13333333,0,0,-0.13333333,0,400)" />
    </g>
  </g>
</svg>
